<?xml version="1.0" standalone="no"?>
<svg xmlns:xlink="http://www.w3.org/1999/xlink" id="wave" style="transform:rotate(180deg); transition: 0.3s" viewBox="0 0 1440 210" version="1.1" xmlns="http://www.w3.org/2000/svg"><defs><linearGradient id="sw-gradient-0" x1="0" x2="0" y1="1" y2="0"><stop stop-color="rgba(14.016, 13.953, 13.933, 1)" offset="0%"/><stop stop-color="rgba(9.463, 9.412, 9.3, 1)" offset="100%"/></linearGradient></defs><path style="transform:translate(0, 0px); opacity:1" fill="url(#sw-gradient-0)" d="M0,42L60,63C120,84,240,126,360,133C480,140,600,112,720,91C840,70,960,56,1080,73.5C1200,91,1320,140,1440,157.5C1560,175,1680,161,1800,154C1920,147,2040,147,2160,143.5C2280,140,2400,133,2520,136.5C2640,140,2760,154,2880,147C3000,140,3120,112,3240,87.5C3360,63,3480,42,3600,28C3720,14,3840,7,3960,21C4080,35,4200,70,4320,98C4440,126,4560,147,4680,147C4800,147,4920,126,5040,98C5160,70,5280,35,5400,28C5520,21,5640,42,5760,73.5C5880,105,6000,147,6120,161C6240,175,6360,161,6480,140C6600,119,6720,91,6840,98C6960,105,7080,147,7200,154C7320,161,7440,133,7560,105C7680,77,7800,49,7920,63C8040,77,8160,133,8280,129.5C8400,126,8520,63,8580,31.5L8640,0L8640,210L8580,210C8520,210,8400,210,8280,210C8160,210,8040,210,7920,210C7800,210,7680,210,7560,210C7440,210,7320,210,7200,210C7080,210,6960,210,6840,210C6720,210,6600,210,6480,210C6360,210,6240,210,6120,210C6000,210,5880,210,5760,210C5640,210,5520,210,5400,210C5280,210,5160,210,5040,210C4920,210,4800,210,4680,210C4560,210,4440,210,4320,210C4200,210,4080,210,3960,210C3840,210,3720,210,3600,210C3480,210,3360,210,3240,210C3120,210,3000,210,2880,210C2760,210,2640,210,2520,210C2400,210,2280,210,2160,210C2040,210,1920,210,1800,210C1680,210,1560,210,1440,210C1320,210,1200,210,1080,210C960,210,840,210,720,210C600,210,480,210,360,210C240,210,120,210,60,210L0,210Z"/></svg>